<svg width="60" height="60" viewBox="0 0 60 60" fill="none" xmlns="http://www.w3.org/2000/svg">
<g filter="url(#filter0_d_71_759)">
<path fill-rule="evenodd" clip-rule="evenodd" d="M12 30C12 20.0589 20.0589 12 30 12C39.9411 12 48 20.0589 48 30C48 39.9411 39.9411 48 30 48C20.0589 48 12 39.9411 12 30Z" fill="white"/>
</g>
<path fill-rule="evenodd" clip-rule="evenodd" d="M33.852 21.2612C34.9504 22.3595 34.9504 24.1403 33.852 25.2387L29.4768 29.6139L33.852 33.9891C34.9504 35.0875 34.9504 36.8682 33.852 37.9666C32.7537 39.0649 30.9729 39.0649 29.8745 37.9666L23.5106 31.6026C22.4122 30.5043 22.4122 28.7235 23.5106 27.6252L29.8745 21.2612C30.9729 20.1628 32.7537 20.1628 33.852 21.2612Z" fill="#FCDA00"/>
<defs>
<filter id="filter0_d_71_759" x="6" y="9" width="48" height="48" filterUnits="userSpaceOnUse" color-interpolation-filters="sRGB">
<feFlood flood-opacity="0" result="BackgroundImageFix"/>
<feColorMatrix in="SourceAlpha" type="matrix" values="0 0 0 0 0 0 0 0 0 0 0 0 0 0 0 0 0 0 127 0" result="hardAlpha"/>
<feOffset dy="3"/>
<feGaussianBlur stdDeviation="3"/>
<feColorMatrix type="matrix" values="0 0 0 0 0 0 0 0 0 0 0 0 0 0 0 0 0 0 0.12 0"/>
<feBlend mode="normal" in2="BackgroundImageFix" result="effect1_dropShadow_71_759"/>
<feBlend mode="normal" in="SourceGraphic" in2="effect1_dropShadow_71_759" result="shape"/>
</filter>
</defs>
</svg>
