<svg width="60" height="60" viewBox="0 0 60 60" fill="none" xmlns="http://www.w3.org/2000/svg">
<g filter="url(#filter0_d_42_324)">
<path fill-rule="evenodd" clip-rule="evenodd" d="M12 30C12 20.0589 20.0589 12 30 12C39.9411 12 48 20.0589 48 30C48 39.9411 39.9411 48 30 48C20.0589 48 12 39.9411 12 30Z" fill="white"/>
</g>
<path d="M38.1828 21.4777C39.2811 22.576 39.2811 24.3568 38.1828 25.4552L33.8076 29.8304L38.1828 34.2056C39.2811 35.304 39.2811 37.0847 38.1828 38.1831C37.0844 39.2814 35.3036 39.2814 34.2053 38.1831L29.8301 33.8079L25.4549 38.1831C24.3565 39.2814 22.5757 39.2814 21.4774 38.1831C20.379 37.0847 20.379 35.304 21.4774 34.2056L25.8526 29.8304L21.4774 25.4552C20.379 24.3568 20.379 22.576 21.4774 21.4777C22.5757 20.3793 24.3565 20.3793 25.4549 21.4777L29.8301 25.8529L34.2053 21.4777C35.3037 20.3793 37.0844 20.3793 38.1828 21.4777Z" fill="#FCDA00"/>
<defs>
<filter id="filter0_d_42_324" x="6" y="9" width="48" height="48" filterUnits="userSpaceOnUse" color-interpolation-filters="sRGB">
<feFlood flood-opacity="0" result="BackgroundImageFix"/>
<feColorMatrix in="SourceAlpha" type="matrix" values="0 0 0 0 0 0 0 0 0 0 0 0 0 0 0 0 0 0 127 0" result="hardAlpha"/>
<feOffset dy="3"/>
<feGaussianBlur stdDeviation="3"/>
<feColorMatrix type="matrix" values="0 0 0 0 0 0 0 0 0 0 0 0 0 0 0 0 0 0 0.12 0"/>
<feBlend mode="normal" in2="BackgroundImageFix" result="effect1_dropShadow_42_324"/>
<feBlend mode="normal" in="SourceGraphic" in2="effect1_dropShadow_42_324" result="shape"/>
</filter>
</defs>
</svg>
