<svg width="51" height="33" viewBox="0 0 51 33" fill="none" xmlns="http://www.w3.org/2000/svg">
<path d="M8.91736 1.23639C12.2779 0.484114 16.105 1.6476 19.5092 3.00397C22.9839 4.38853 30.3268 8.28555 36.7377 11.7969C39.9573 13.5604 42.9635 15.2383 45.1644 16.4756C46.265 17.0944 47.1649 17.6031 47.7894 17.9571C48.1013 18.1339 48.3446 18.2721 48.5101 18.3663C48.5929 18.4133 48.657 18.4494 48.6996 18.4737C48.7206 18.4857 48.7366 18.4949 48.7474 18.501C48.7529 18.5041 48.7574 18.5073 48.7601 18.5089C48.7613 18.5095 48.7624 18.5095 48.7631 18.5098L48.764 18.5108L49.4701 18.9131L49.2201 19.6866L45.7885 30.3067L45.5248 31.1221L44.6781 30.9864L12.056 25.7471L12.0209 25.7413L11.9877 25.7335L12.2142 24.7598L11.9867 25.7335L11.9857 25.7325C11.9848 25.7323 11.9831 25.7328 11.9818 25.7325C11.9792 25.7319 11.976 25.7305 11.972 25.7296C11.9638 25.7276 11.952 25.7252 11.9379 25.7217C11.9097 25.7148 11.8698 25.7047 11.8197 25.6915C11.7193 25.6649 11.5763 25.625 11.3978 25.5714C11.0409 25.464 10.5397 25.2987 9.94861 25.0655C8.77068 24.6007 7.21131 23.8551 5.72498 22.7325C4.2378 21.6092 2.7946 20.0864 1.90076 18.0645C1.00077 16.0287 0.688593 13.5541 1.36658 10.5948C2.02303 7.72952 3.01727 5.58535 4.31189 4.05182C5.61961 2.50292 7.19671 1.62157 8.91736 1.23639Z" fill="#FDDEFF" stroke="url(#paint0_linear_367_2683)" stroke-width="2"/>
<defs>
<linearGradient id="paint0_linear_367_2683" x1="42.6786" y1="15.2904" x2="30.2254" y2="-12.2403" gradientUnits="userSpaceOnUse">
<stop stop-color="#F1BDFF"/>
<stop offset="1" stop-color="#FFDDF2"/>
</linearGradient>
</defs>
</svg>
